<svg width="122" height="28" viewBox="0 0 122 28" fill="none" xmlns="http://www.w3.org/2000/svg">
<path d="M0.040481 25.5H7.6082C7.6082 25.5 6.11548 24.8404 6.11548 21.9591V13.2806H15.8355V21.9591C15.8355 24.8404 14.3081 25.5 14.3081 25.5H21.8758C21.8758 25.5 20.3483 24.8404 20.3483 21.9591V4.845C20.3483 1.443 21.8758 1.30414 21.8758 1.30414H14.3081C14.3081 1.30414 15.8355 1.443 15.8355 4.845V13.1417H6.11548V4.845C6.11548 1.443 7.6082 1.30414 7.6082 1.30414H0.040481C0.040481 1.30414 1.60262 1.443 1.60262 4.845V21.9591C1.60262 24.8404 0.040481 25.5 0.040481 25.5ZM29.5598 25.8471C33.8991 25.8471 37.4053 21.8203 37.4053 16.9603C37.4053 12.0309 33.8991 8.03871 29.5598 8.03871C25.2553 8.03871 21.7491 12.0309 21.7491 16.9603C21.7491 21.8203 25.2553 25.8471 29.5598 25.8471ZM25.4635 9.77443C27.1298 8.733 30.7054 10.0174 33.4131 14.7039C35.3571 18.0711 36.1555 22.6881 33.6908 24.1461C31.2261 25.5347 27.72 22.6187 25.7413 19.182C23.4154 15.1204 23.3807 10.9547 25.4635 9.77443ZM38.0222 25.5H44.2361C44.0972 25.4306 42.9517 25.1181 42.9517 21.9244V16.7173C42.9517 13.7666 44.4444 9.91328 46.9438 9.91328C47.8811 9.91328 49.0267 11.6143 47.4992 13.0723C48.0894 13.35 48.506 13.4541 49.0961 13.4541C52.4287 13.4541 53.0882 8.03871 49.0961 8.03871C45.8677 8.03871 43.4724 11.4754 42.9517 14.7039V7.62214C42.2227 8.55943 40.1745 9.77443 37.7445 9.77443C38.543 10.191 39.3414 10.8159 39.3414 13.7319V21.9244C39.3414 25.1181 38.1611 25.4306 38.0222 25.5ZM58.1877 25.8819C59.9234 25.8819 60.9302 24.528 61.2079 23.4519C58.8126 23.4519 58.4307 20.5359 58.4307 15.7453V8.42057L60.5136 9.60086V8.247H58.4307V3.28285H58.2572C58.2572 5.85171 53.8832 8.247 52.0086 8.247V8.42057H54.751L54.7857 19.3556C54.7857 23.5213 55.5494 25.8819 58.1877 25.8819ZM65.2185 14.5997C67.3707 14.5997 67.579 13.35 67.579 13.35C65.8433 14.079 64.3159 8.83714 67.9262 8.42057C69.766 8.17757 70.7033 9.18428 71.1546 10.8159C72.3349 15.2593 62.0247 16.0924 62.0247 21.3343C62.0247 26.1596 70.2173 27.8606 72.2307 22.3757C72.7167 24.3891 73.7235 25.7777 75.8757 25.7777C77.9239 25.7777 78.5835 24.4586 78.6182 23.313C75.7022 23.3477 75.6327 20.1193 75.4939 15.1899C75.4245 10.2604 72.8556 8.21228 68.4469 8.21228C61.6082 8.21228 61.6776 14.5997 65.2185 14.5997ZM65.5309 21.0219C65.5309 16.9603 70.6339 14.7039 71.5017 12.5516C71.8489 15.4329 71.5712 19.2514 72.1613 22.0286C71.5712 23.799 69.5577 24.5627 68.9329 24.5627C66.7806 24.5627 65.5309 22.7923 65.5309 21.0219ZM79.1025 25.5H85.3511C85.2123 25.4306 84.0667 24.5974 84.0667 21.9591V1.06114C83.9625 1.13057 82.6087 3.63 78.8248 3.63C78.9637 3.66471 80.4217 4.359 80.4217 7.17086V21.9591C80.4217 24.5974 79.2414 25.4306 79.1025 25.5ZM86.2976 25.5H92.5115C92.3726 25.4306 91.227 24.5974 91.227 21.9591V8.10814C90.3592 8.83714 88.1375 9.98271 85.9852 9.98271C86.6795 10.1216 87.582 10.8506 87.582 13.5583V21.9591C87.582 24.5974 86.4365 25.4306 86.2976 25.5ZM86.6448 5.19214C87.3738 6.51128 88.9359 6.96257 90.0468 6.33771C91.1923 5.67814 91.5395 4.08128 90.7758 2.79685C90.0468 1.51243 88.5193 0.991712 87.3738 1.686C86.1935 2.34557 85.9158 3.97714 86.6448 5.19214ZM102.233 8.35114L92.9299 25.5H106.33L106.816 19.2167C106.469 21.7509 103.9 25.3264 97.3039 25.3264L106.607 8.17757H94.3532L93.7978 12.5169L94.0408 12.1697C96.2278 8.45528 98.9008 8.35114 102.233 8.35114ZM115.946 25.8471C118.688 25.8471 120.806 24.1809 121.535 21.9244C118.55 25.8124 112.995 22.098 111.121 16.8909H121.118C121.466 12.5169 119.799 7.96929 115.529 7.96929C113.794 7.96929 112.336 8.733 111.711 9.14957C109.559 10.5034 107.858 13.3153 107.858 16.6826C107.858 21.7509 111.503 25.8471 115.946 25.8471ZM110.947 16.5437C110.149 14.079 109.732 10.677 111.78 9.28843C114.696 7.34443 117.89 11.6837 119.591 15.4676L110.947 16.5437Z" fill="#578067"/>
<path d="M0.0404816 25.5L-0.178316 24.9818C-0.424873 25.0859 -0.563941 25.3493 -0.510834 25.6116C-0.457726 25.8739 -0.227153 26.0625 0.0404816 26.0625V25.5ZM7.6082 25.5V26.0625C7.87408 26.0625 8.10365 25.8763 8.15857 25.6162C8.21348 25.356 8.07874 25.093 7.83554 24.9855L7.6082 25.5ZM6.11548 13.2806V12.7181C5.80482 12.7181 5.55298 12.9699 5.55298 13.2806H6.11548ZM15.8355 13.2806H16.398C16.398 12.9699 16.1461 12.7181 15.8355 12.7181V13.2806ZM14.3081 25.5L14.0851 24.9836C13.8401 25.0893 13.7032 25.3526 13.7572 25.6139C13.8112 25.8751 14.0413 26.0625 14.3081 26.0625V25.5ZM21.8758 25.5V26.0625C22.1425 26.0625 22.3726 25.8751 22.4266 25.6139C22.4806 25.3526 22.3437 25.0893 22.0988 24.9836L21.8758 25.5ZM21.8758 1.30414L21.9267 1.86433C22.2262 1.8371 22.4513 1.57909 22.4377 1.27865C22.4241 0.978212 22.1765 0.741641 21.8758 0.741641V1.30414ZM14.3081 1.30414V0.741641C14.0073 0.741641 13.7598 0.978212 13.7461 1.27865C13.7325 1.57909 13.9576 1.8371 14.2571 1.86433L14.3081 1.30414ZM15.8355 13.1417V13.7042C16.1461 13.7042 16.398 13.4524 16.398 13.1417H15.8355ZM6.11548 13.1417H5.55298C5.55298 13.4524 5.80482 13.7042 6.11548 13.7042V13.1417ZM7.6082 1.30414L7.6603 1.86422C7.95953 1.83639 8.18402 1.57826 8.17009 1.27806C8.15616 0.977865 7.90872 0.741641 7.6082 0.741641V1.30414ZM0.0404816 1.30414V0.741641C-0.260486 0.741641 -0.508129 0.978544 -0.521466 1.27921C-0.534803 1.57989 -0.309108 1.83778 -0.00932312 1.86443L0.0404816 1.30414ZM0.0404816 26.0625H7.6082V24.9375H0.0404816V26.0625ZM7.6082 25.5C7.83554 24.9855 7.83594 24.9857 7.83633 24.9858C7.83646 24.9859 7.83685 24.9861 7.8371 24.9862C7.83759 24.9864 7.83807 24.9866 7.83852 24.9868C7.83943 24.9872 7.84026 24.9876 7.84099 24.9879C7.84247 24.9886 7.84361 24.9891 7.84443 24.9895C7.84605 24.9903 7.84637 24.9905 7.84548 24.99C7.84368 24.9891 7.83702 24.9857 7.82618 24.9794C7.80447 24.9668 7.76612 24.9429 7.71633 24.9049C7.61713 24.8291 7.47128 24.6966 7.32033 24.4842C7.02271 24.0654 6.67798 23.2974 6.67798 21.9591H5.55298C5.55298 23.5022 5.95461 24.5046 6.40335 25.1359C6.62557 25.4486 6.85291 25.661 7.03359 25.799C7.12375 25.8678 7.20201 25.9179 7.26194 25.9527C7.2919 25.97 7.31732 25.9836 7.33739 25.9938C7.34742 25.9988 7.35613 26.0031 7.3634 26.0065C7.36704 26.0082 7.37032 26.0098 7.37323 26.0111C7.37469 26.0117 7.37605 26.0124 7.37733 26.0129C7.37796 26.0132 7.37857 26.0135 7.37916 26.0138C7.37945 26.0139 7.37988 26.0141 7.38002 26.0141C7.38044 26.0143 7.38085 26.0145 7.6082 25.5ZM6.67798 21.9591V13.2806H5.55298V21.9591H6.67798ZM6.11548 13.8431H15.8355V12.7181H6.11548V13.8431ZM15.273 13.2806V21.9591H16.398V13.2806H15.273ZM15.273 21.9591C15.273 23.2946 14.9212 24.0608 14.6169 24.4792C14.4623 24.6917 14.3127 24.8247 14.2103 24.9011C14.1589 24.9394 14.1192 24.9637 14.0964 24.9766C14.085 24.9831 14.0779 24.9867 14.0758 24.9877C14.0747 24.9882 14.0749 24.9881 14.0764 24.9874C14.0772 24.9871 14.0783 24.9866 14.0797 24.9859C14.0804 24.9856 14.0812 24.9853 14.0821 24.9849C14.0826 24.9847 14.083 24.9845 14.0835 24.9843C14.0838 24.9841 14.0842 24.984 14.0843 24.9839C14.0847 24.9838 14.0851 24.9836 14.3081 25.5C14.531 26.0164 14.5315 26.0162 14.5319 26.0161C14.532 26.016 14.5324 26.0158 14.5327 26.0157C14.5333 26.0154 14.5339 26.0152 14.5345 26.0149C14.5358 26.0143 14.5372 26.0137 14.5386 26.0131C14.5415 26.0118 14.5448 26.0103 14.5485 26.0086C14.5557 26.0052 14.5645 26.0011 14.5746 25.9961C14.5949 25.9861 14.6206 25.9727 14.651 25.9554C14.7117 25.921 14.7913 25.8713 14.8831 25.8027C15.0671 25.6655 15.2993 25.4535 15.5267 25.1409C15.9861 24.5092 16.398 23.505 16.398 21.9591H15.273ZM14.3081 26.0625H21.8758V24.9375H14.3081V26.0625ZM21.8758 25.5C22.0988 24.9836 22.0992 24.9838 22.0995 24.9839C22.0997 24.984 22.1001 24.9841 22.1003 24.9843C22.1008 24.9845 22.1013 24.9847 22.1017 24.9849C22.1026 24.9853 22.1034 24.9856 22.1041 24.9859C22.1056 24.9866 22.1066 24.9871 22.1074 24.9874C22.1089 24.9881 22.1091 24.9882 22.108 24.9877C22.1059 24.9867 22.0988 24.9831 22.0874 24.9766C22.0646 24.9637 22.0249 24.9394 21.9735 24.9011C21.8711 24.8247 21.7215 24.6917 21.567 24.4792C21.2627 24.0608 20.9108 23.2946 20.9108 21.9591H19.7858C19.7858 23.505 20.1977 24.5092 20.6571 25.1409C20.8845 25.4535 21.1167 25.6655 21.3007 25.8027C21.3925 25.8713 21.4721 25.921 21.5329 25.9554C21.5632 25.9727 21.589 25.9861 21.6092 25.9961C21.6193 26.0011 21.6281 26.0052 21.6354 26.0086C21.639 26.0103 21.6423 26.0118 21.6452 26.0131C21.6467 26.0137 21.648 26.0143 21.6493 26.0149C21.6499 26.0152 21.6505 26.0154 21.6511 26.0157C21.6514 26.0158 21.6518 26.016 21.652 26.0161C21.6524 26.0162 21.6528 26.0164 21.8758 25.5ZM20.9108 21.9591V4.845H19.7858V21.9591H20.9108ZM20.9108 4.845C20.9108 3.22074 21.276 2.48191 21.5448 2.15812C21.6793 1.99617 21.8016 1.92263 21.8731 1.88961C21.9099 1.87259 21.9359 1.86512 21.9466 1.86246C21.9519 1.86112 21.9533 1.86101 21.9503 1.86151C21.9487 1.86177 21.9461 1.86218 21.9422 1.86267C21.9402 1.86292 21.938 1.86319 21.9354 1.86347C21.9341 1.86361 21.9327 1.86375 21.9313 1.86389C21.9306 1.86397 21.9298 1.86404 21.9291 1.86411C21.9287 1.86415 21.9281 1.8642 21.9279 1.86422C21.9273 1.86428 21.9267 1.86433 21.8758 1.30414C21.8248 0.743951 21.8242 0.744007 21.8236 0.744064C21.8234 0.744084 21.8228 0.744143 21.8223 0.744184C21.8215 0.744265 21.8206 0.744351 21.8197 0.744442C21.8179 0.744623 21.816 0.744823 21.8139 0.745042C21.8099 0.745481 21.8055 0.746 21.8006 0.746614C21.7909 0.747841 21.7797 0.749448 21.767 0.751549C21.7415 0.755749 21.7101 0.761938 21.6737 0.771047C21.6008 0.789269 21.5075 0.819226 21.4011 0.86838C21.1862 0.967706 20.9267 1.1415 20.6793 1.43952C20.1844 2.03566 19.7858 3.06726 19.7858 4.845H20.9108ZM21.8758 0.741641H14.3081V1.86664H21.8758V0.741641ZM14.3081 1.30414C14.2571 1.86433 14.2565 1.86428 14.2559 1.86422C14.2557 1.8642 14.2552 1.86415 14.2548 1.86411C14.254 1.86404 14.2533 1.86397 14.2525 1.86389C14.2511 1.86375 14.2497 1.86361 14.2484 1.86347C14.2459 1.86319 14.2436 1.86292 14.2417 1.86267C14.2378 1.86218 14.2351 1.86177 14.2336 1.86151C14.2305 1.86101 14.2319 1.86112 14.2373 1.86246C14.2479 1.86512 14.2739 1.87259 14.3107 1.88961C14.3822 1.92263 14.5045 1.99617 14.639 2.15812C14.9078 2.48191 15.273 3.22074 15.273 4.845H16.398C16.398 3.06726 15.9995 2.03566 15.5046 1.43952C15.2572 1.1415 14.9976 0.967706 14.7827 0.86838C14.6763 0.819226 14.583 0.789269 14.5101 0.771047C14.4737 0.761938 14.4423 0.755749 14.4169 0.751549C14.4041 0.749448 14.3929 0.747841 14.3832 0.746614C14.3784 0.746 14.3739 0.745481 14.3699 0.745042C14.3679 0.744823 14.3659 0.744623 14.3641 0.744442C14.3632 0.744351 14.3623 0.744265 14.3615 0.744184C14.361 0.744143 14.3604 0.744084 14.3602 0.744064C14.3596 0.744007 14.359 0.743951 14.3081 1.30414ZM15.273 4.845V13.1417H16.398V4.845H15.273ZM15.8355 12.5792H6.11548V13.7042H15.8355V12.5792ZM6.67798 13.1417V4.845H5.55298V13.1417H6.67798ZM6.67798 4.845C6.67798 3.21815 7.0357 2.47732 7.29865 2.15322C7.42974 1.99165 7.54809 1.91934 7.61542 1.88751C7.65023 1.87105 7.67438 1.86403 7.68346 1.8617C7.68802 1.86054 7.68878 1.86056 7.68516 1.86117C7.68335 1.86147 7.68042 1.86193 7.67631 1.86247C7.67425 1.86273 7.6719 1.86302 7.66923 1.86331C7.6679 1.86346 7.66649 1.86361 7.665 1.86376C7.66426 1.86384 7.66349 1.86392 7.66271 1.86399C7.66232 1.86403 7.66171 1.86409 7.66152 1.86411C7.66091 1.86417 7.6603 1.86422 7.6082 1.30414C7.5561 0.744059 7.55547 0.744118 7.55484 0.744177C7.55462 0.744198 7.55398 0.74426 7.55355 0.744302C7.55267 0.744387 7.55177 0.744477 7.55085 0.744571C7.549 0.74476 7.54705 0.744967 7.545 0.745195C7.5409 0.745651 7.5364 0.746188 7.53152 0.746822C7.52176 0.748088 7.51045 0.749741 7.4977 0.751895C7.47222 0.756202 7.44091 0.762525 7.40465 0.771801C7.3321 0.79036 7.23963 0.820768 7.1345 0.870481C6.92194 0.970994 6.66712 1.14603 6.42502 1.44442C5.94162 2.04024 5.55298 3.06985 5.55298 4.845H6.67798ZM7.6082 0.741641H0.0404816V1.86664H7.6082V0.741641ZM0.0404816 1.30414C-0.00932312 1.86443 -0.00990868 1.86438 -0.0104895 1.86433C-0.0106754 1.86431 -0.0112514 1.86426 -0.0116234 1.86422C-0.0123701 1.86415 -0.0130949 1.86408 -0.0137987 1.86402C-0.0152073 1.86388 -0.0165319 1.86374 -0.0177755 1.86361C-0.0202618 1.86335 -0.0224218 1.8631 -0.0242653 1.86287C-0.0279522 1.86241 -0.030386 1.86204 -0.0316467 1.86184C-0.0341597 1.86143 -0.0320549 1.86167 -0.0259628 1.86316C-0.0137796 1.86614 0.0140953 1.87404 0.0529461 1.89159C0.128551 1.92576 0.254894 2.00051 0.392761 2.16289C0.667496 2.48646 1.04012 3.22337 1.04012 4.845H2.16512C2.16512 3.06463 1.75668 2.03111 1.25034 1.43475C0.997675 1.13717 0.733482 0.96458 0.516186 0.866394C0.408585 0.817775 0.314417 0.788245 0.241171 0.77034C0.20455 0.761388 0.173092 0.755326 0.147696 0.751225C0.134993 0.749173 0.123789 0.74761 0.114191 0.74642C0.10939 0.745824 0.10499 0.745322 0.101002 0.744899C0.0990086 0.744687 0.0971165 0.744495 0.0953293 0.744321C0.0944366 0.744234 0.0935688 0.744151 0.0927277 0.744073C0.092308 0.744034 0.0916958 0.743978 0.091486 0.743958C0.0908833 0.743904 0.0902843 0.74385 0.0404816 1.30414ZM1.04012 4.845V21.9591H2.16512V4.845H1.04012ZM1.04012 21.9591C1.04012 23.2917 0.681259 24.0562 0.370213 24.4743C0.212116 24.6869 0.058691 24.8204 -0.0469809 24.8975C-0.099966 24.9362 -0.141122 24.9608 -0.164972 24.974C-0.176888 24.9806 -0.184433 24.9843 -0.18691 24.9855C-0.188146 24.9861 -0.188108 24.9861 -0.186707 24.9854C-0.186007 24.9851 -0.184965 24.9847 -0.183571 24.9841C-0.182874 24.9837 -0.182088 24.9834 -0.181212 24.983C-0.180775 24.9828 -0.180315 24.9826 -0.179832 24.9824C-0.179591 24.9823 -0.179212 24.9822 -0.17909 24.9821C-0.178706 24.982 -0.178316 24.9818 0.0404816 25.5C0.259277 26.0182 0.25968 26.018 0.260088 26.0179C0.260233 26.0178 0.260649 26.0176 0.260937 26.0175C0.261515 26.0173 0.262117 26.017 0.262743 26.0167C0.263998 26.0162 0.265348 26.0156 0.266798 26.015C0.269693 26.0137 0.272976 26.0122 0.276632 26.0106C0.283943 26.0073 0.292753 26.0032 0.302959 25.9983C0.323364 25.9884 0.349382 25.9751 0.380182 25.9581C0.441761 25.924 0.522648 25.8745 0.616112 25.8063C0.803343 25.6697 1.04045 25.4583 1.27289 25.1458C1.74292 24.5138 2.16512 23.5079 2.16512 21.9591H1.04012ZM25.4635 9.77443L25.7409 10.2638C25.7479 10.2598 25.7548 10.2557 25.7617 10.2514L25.4635 9.77443ZM33.4131 14.7039L33.9003 14.4226L33.9002 14.4225L33.4131 14.7039ZM33.6908 24.1461L33.967 24.6363L33.9772 24.6303L33.6908 24.1461ZM25.7413 19.182L25.2531 19.4615L25.2538 19.4627L25.7413 19.182ZM29.5598 26.4096C34.2757 26.4096 37.9678 22.0606 37.9678 16.9603H36.8428C36.8428 21.58 33.5225 25.2846 29.5598 25.2846V26.4096ZM37.9678 16.9603C37.9678 11.7905 34.2757 7.47621 29.5598 7.47621V8.60121C33.5225 8.60121 36.8428 12.2712 36.8428 16.9603H37.9678ZM29.5598 7.47621C24.8771 7.47621 21.1866 11.7922 21.1866 16.9603H22.3116C22.3116 12.2695 25.6334 8.60121 29.5598 8.60121V7.47621ZM21.1866 16.9603C21.1866 22.0589 24.8771 26.4096 29.5598 26.4096V25.2846C25.6334 25.2846 22.3116 21.5817 22.3116 16.9603H21.1866ZM25.7617 10.2514C26.3509 9.88318 27.4272 9.85651 28.7808 10.5863C30.111 11.3035 31.6126 12.7119 32.9261 14.9853L33.9002 14.4225C32.5059 12.0094 30.8659 10.4324 29.3147 9.59607C27.7871 8.77242 26.2425 8.62424 25.1654 9.29743L25.7617 10.2514ZM32.926 14.9851C33.8646 16.611 34.5175 18.5263 34.6444 20.1839C34.7733 21.8685 34.3561 23.0991 33.4044 23.662L33.9772 24.6303C35.4903 23.7352 35.9062 21.9282 35.7661 20.0981C35.6239 18.2408 34.9056 16.164 33.9003 14.4226L32.926 14.9851ZM33.4147 23.6561C32.4648 24.1913 31.2204 23.951 29.8526 23.0101C28.5046 22.0828 27.1862 20.5643 26.2287 18.9013L25.2538 19.4627C26.275 21.2364 27.6991 22.8942 29.215 23.937C30.7111 24.9661 32.4522 25.4896 33.9669 24.6362L33.4147 23.6561ZM26.2294 18.9025C25.1036 16.9365 24.548 14.9705 24.5115 13.3848C24.4743 11.7716 24.9665 10.7026 25.7409 10.2638L25.1862 9.28504C23.8777 10.0265 23.3458 11.6306 23.3868 13.4107C23.4284 15.2183 24.0531 17.3659 25.2531 19.4615L26.2294 18.9025ZM38.0222 25.5L37.7707 24.9969C37.5374 25.1136 37.4149 25.3753 37.4748 25.6292C37.5347 25.8831 37.7614 26.0625 38.0222 26.0625V25.5ZM44.2361 25.5V26.0625C44.497 26.0625 44.7236 25.8831 44.7836 25.6292C44.8435 25.3753 44.721 25.1136 44.4877 24.9969L44.2361 25.5ZM47.4992 13.0723L47.1109 12.6654C46.9767 12.7935 46.9143 12.9795 46.944 13.1625C46.9738 13.3456 47.0919 13.5023 47.2597 13.5812L47.4992 13.0723ZM42.9517 14.7039H42.3892C42.3892 14.9971 42.6144 15.2411 42.9067 15.2646C43.1991 15.288 43.4603 15.0829 43.507 14.7934L42.9517 14.7039ZM42.9517 7.62214H43.5142C43.5142 7.38184 43.3615 7.16807 43.1342 7.09009C42.9069 7.0121 42.6552 7.08712 42.5077 7.2768L42.9517 7.62214ZM37.7445 9.77443V9.21193C37.4855 9.21193 37.2599 9.38887 37.1982 9.64048C37.1365 9.89209 37.2547 10.1533 37.4843 10.2731L37.7445 9.77443ZM38.0222 26.0625H44.2361V24.9375H38.0222V26.0625ZM44.4877 24.9969C44.3808 24.9435 44.3822 24.9584 44.2997 24.9005C44.2342 24.8546 44.1305 24.7645 44.0188 24.5857C43.7914 24.2218 43.5142 23.4625 43.5142 21.9244H42.3892C42.3892 23.58 42.6848 24.5739 43.0648 25.1819C43.2568 25.4892 43.4656 25.6897 43.654 25.8218C43.8253 25.9418 44.022 26.0218 43.9845 26.0031L44.4877 24.9969ZM43.5142 21.9244V16.7173H42.3892V21.9244H43.5142ZM43.5142 16.7173C43.5142 15.3228 43.8698 13.7113 44.5106 12.4662C45.1645 11.1956 46.0162 10.4758 46.9438 10.4758V9.35078C45.372 9.35078 44.2276 10.5576 43.5103 11.9514C42.7799 13.3705 42.3892 15.1611 42.3892 16.7173H43.5142ZM46.9438 10.4758C47.0998 10.4758 47.4538 10.6716 47.6149 11.1319C47.7507 11.5199 47.7234 12.0807 47.1109 12.6654L47.8876 13.4792C48.8025 12.6059 48.9661 11.5871 48.6767 10.7602C48.4126 10.0055 47.7251 9.35078 46.9438 9.35078V10.4758ZM47.2597 13.5812C47.9126 13.8885 48.4106 14.0166 49.0961 14.0166V12.8916C48.6013 12.8916 48.2662 12.8115 47.7388 12.5633L47.2597 13.5812ZM49.0961 14.0166C51.13 14.0166 52.3084 12.3557 52.4043 10.7806C52.453 9.98222 52.2333 9.15103 51.6709 8.51294C51.1001 7.86532 50.2288 7.47621 49.0961 7.47621V8.60121C49.9595 8.60121 50.5028 8.88903 50.827 9.25681C51.1595 9.63412 51.3152 10.1568 51.2814 10.7122C51.2124 11.8449 50.3947 12.8916 49.0961 12.8916V14.0166ZM49.0961 7.47621C47.268 7.47621 45.7176 8.45055 44.5789 9.79748C43.4409 11.1436 42.6718 12.9063 42.3964 14.6143L43.507 14.7934C43.7522 13.273 44.4411 11.7031 45.4381 10.5238C46.4344 9.34524 47.6957 8.60121 49.0961 8.60121V7.47621ZM43.5142 14.7039V7.62214H42.3892V14.7039H43.5142ZM42.5077 7.2768C42.2138 7.65462 41.6017 8.14386 40.7492 8.53954C39.9062 8.9308 38.8671 9.21193 37.7445 9.21193V10.3369C39.052 10.3369 40.252 10.0106 41.2228 9.55999C42.1841 9.11385 42.9606 8.52694 43.3957 7.96748L42.5077 7.2768ZM37.4843 10.2731C37.8352 10.4562 38.1201 10.6484 38.3439 11.0764C38.5827 11.5333 38.7789 12.3135 38.7789 13.7319H39.9039C39.9039 12.2342 39.7009 11.244 39.3409 10.5553C38.9658 9.83774 38.4523 9.50923 38.0047 9.27572L37.4843 10.2731ZM38.7789 13.7319V21.9244H39.9039V13.7319H38.7789ZM38.7789 21.9244C38.7789 23.46 38.4939 24.2169 38.2607 24.5796C38.1459 24.7582 38.0387 24.8495 37.9696 24.8967C37.8789 24.9587 37.8862 24.9391 37.7707 24.9969L38.2738 26.0031C38.2277 26.0262 38.4347 25.9415 38.6043 25.8256C38.7955 25.6949 39.0094 25.4954 39.2071 25.188C39.5987 24.5787 39.9039 23.5825 39.9039 21.9244H38.7789ZM61.2079 23.4519L61.7525 23.5924C61.796 23.424 61.7591 23.2449 61.6525 23.1074C61.546 22.9698 61.3818 22.8894 61.2079 22.8894V23.4519ZM58.4307 8.42057L58.708 7.93118C58.5339 7.8325 58.3204 7.83379 58.1475 7.93457C57.9746 8.03534 57.8682 8.22042 57.8682 8.42057H58.4307ZM60.5136 9.60086L60.2363 10.0902C60.4104 10.1889 60.6239 10.1876 60.7968 10.0869C60.9697 9.98609 61.0761 9.80101 61.0761 9.60086H60.5136ZM60.5136 8.247H61.0761C61.0761 7.93634 60.8242 7.6845 60.5136 7.6845V8.247ZM58.4307 8.247H57.8682C57.8682 8.55766 58.1201 8.8095 58.4307 8.8095V8.247ZM58.4307 3.28285H58.9932C58.9932 2.97219 58.7414 2.72035 58.4307 2.72035V3.28285ZM58.2572 3.28285V2.72035C57.9465 2.72035 57.6947 2.97219 57.6947 3.28285H58.2572ZM52.0086 8.247V7.6845C51.6979 7.6845 51.4461 7.93634 51.4461 8.247H52.0086ZM52.0086 8.42057H51.4461C51.4461 8.73123 51.6979 8.98307 52.0086 8.98307V8.42057ZM54.751 8.42057L55.3135 8.41878C55.3125 8.10882 55.061 7.85807 54.751 7.85807V8.42057ZM54.7857 19.3556H55.3482L55.3482 19.3538L54.7857 19.3556ZM58.1877 26.4444C60.2646 26.4444 61.4346 24.8243 61.7525 23.5924L60.6632 23.3113C60.4257 24.2317 59.5823 25.3194 58.1877 25.3194V26.4444ZM61.2079 22.8894C60.7352 22.8894 60.4045 22.7506 60.1475 22.5104C59.8756 22.2563 59.6424 21.8471 59.4602 21.2347C59.092 19.9965 58.9932 18.1491 58.9932 15.7453H57.8682C57.8682 18.132 57.9604 20.1379 58.3819 21.5554C58.5946 22.2708 58.906 22.89 59.3794 23.3324C59.8676 23.7886 60.4829 24.0144 61.2079 24.0144V22.8894ZM58.9932 15.7453V8.42057H57.8682V15.7453H58.9932ZM58.1534 8.90996L60.2363 10.0902L60.7909 9.11147L58.708 7.93118L58.1534 8.90996ZM61.0761 9.60086V8.247H59.9511V9.60086H61.0761ZM60.5136 7.6845H58.4307V8.8095H60.5136V7.6845ZM58.9932 8.247V3.28285H57.8682V8.247H58.9932ZM58.4307 2.72035H58.2572V3.84535H58.4307V2.72035ZM57.6947 3.28285C57.6947 3.76334 57.4891 4.2785 57.0944 4.80474C56.7012 5.32901 56.1455 5.82943 55.5155 6.26587C54.8874 6.70102 54.2034 7.06021 53.5701 7.30906C52.9267 7.56185 52.3769 7.6845 52.0086 7.6845V8.8095C52.5775 8.8095 53.2775 8.63273 53.9815 8.35613C54.6955 8.0756 55.4564 7.67541 56.1562 7.19062C56.854 6.70714 57.5089 6.12707 57.9944 5.47974C58.4785 4.83437 58.8197 4.0868 58.8197 3.28285H57.6947ZM51.4461 8.247V8.42057H52.5711V8.247H51.4461ZM52.0086 8.98307H54.751V7.85807H52.0086V8.98307ZM54.1885 8.42236L54.2232 19.3574L55.3482 19.3538L55.3135 8.41878L54.1885 8.42236ZM54.2232 19.3556C54.2232 21.4482 54.4109 23.1883 54.988 24.4196C55.2826 25.0479 55.6877 25.5644 56.2376 25.9202C56.7883 26.2765 57.442 26.4444 58.1877 26.4444V25.3194C57.6143 25.3194 57.1832 25.1921 56.8487 24.9757C56.5133 24.7587 56.2329 24.4247 56.0067 23.9421C55.5424 22.9517 55.3482 21.4286 55.3482 19.3556H54.2232ZM67.579 13.35L68.1339 13.4425C68.1676 13.2404 68.0887 13.0359 67.928 12.9088C67.7673 12.7817 67.5501 12.752 67.3612 12.8314L67.579 13.35ZM67.9262 8.42057L67.9907 8.97944L67.9998 8.97823L67.9262 8.42057ZM71.1546 10.8159L71.6983 10.6714L71.6967 10.6659L71.1546 10.8159ZM72.2307 22.3757L72.7775 22.2437C72.7194 22.0028 72.5105 21.8284 72.2631 21.8141C72.0157 21.7999 71.7881 21.9492 71.7027 22.1819L72.2307 22.3757ZM78.6182 23.313L79.1804 23.33C79.1851 23.1768 79.127 23.0283 79.0196 22.9189C78.9122 22.8095 78.7648 22.7487 78.6115 22.7505L78.6182 23.313ZM75.4939 15.1899L74.9314 15.1978L74.9316 15.2057L75.4939 15.1899ZM71.5017 12.5516L72.0602 12.4843C72.0295 12.2294 71.8301 12.0277 71.5756 11.9939C71.3211 11.9602 71.0761 12.1031 70.9801 12.3412L71.5017 12.5516ZM72.1613 22.0286L72.695 22.2064C72.7266 22.1114 72.7324 22.0096 72.7115 21.9116L72.1613 22.0286ZM65.2185 15.1622C66.4097 15.1622 67.1515 14.8126 67.5981 14.378C67.8159 14.1662 67.9472 13.9493 68.0251 13.7777C68.0639 13.6921 68.0895 13.6176 68.1062 13.5602C68.1145 13.5315 68.1206 13.5068 68.1251 13.487C68.1273 13.4771 68.1291 13.4684 68.1305 13.4609C68.1312 13.4572 68.1319 13.4538 68.1324 13.4507C68.1327 13.4492 68.133 13.4477 68.1332 13.4464C68.1333 13.4457 68.1335 13.445 68.1336 13.4444C68.1336 13.444 68.1337 13.4436 68.1337 13.4434C68.1338 13.4429 68.1339 13.4425 67.579 13.35C67.0242 13.2575 67.0243 13.2571 67.0243 13.2566C67.0244 13.2565 67.0244 13.256 67.0245 13.2558C67.0246 13.2552 67.0247 13.2546 67.0248 13.2541C67.0249 13.253 67.0251 13.252 67.0253 13.2511C67.0256 13.2492 67.0259 13.2476 67.0262 13.2462C67.0267 13.2435 67.0271 13.2418 67.0273 13.241C67.0276 13.2395 67.0272 13.2418 67.0256 13.2472C67.0224 13.2581 67.0149 13.2813 67.0006 13.3129C66.9722 13.3755 66.917 13.4711 66.8136 13.5717C66.618 13.762 66.1795 14.0372 65.2185 14.0372V15.1622ZM67.3612 12.8314C67.2468 12.8794 67.0722 12.8807 66.8247 12.5849C66.5777 12.2897 66.3704 11.7995 66.3066 11.25C66.2432 10.7034 66.3297 10.1696 66.5815 9.76765C66.82 9.3869 67.242 9.06574 67.9906 8.97936L67.8617 7.86178C66.8052 7.98368 66.0643 8.47397 65.6281 9.17045C65.205 9.84577 65.105 10.6549 65.1891 11.3797C65.2729 12.1017 65.5472 12.8113 65.9619 13.3069C66.3762 13.8019 67.0434 14.1851 67.7968 13.8686L67.3612 12.8314ZM67.9998 8.97823C68.7989 8.87269 69.3283 9.04308 69.7053 9.35092C70.1001 9.67334 70.4027 10.2076 70.6125 10.9658L71.6967 10.6659C71.4552 9.79252 71.0635 9.00766 70.4169 8.47957C69.7524 7.93692 68.8933 7.72545 67.8525 7.86291L67.9998 8.97823ZM70.611 10.9603C70.8364 11.8091 70.5449 12.4964 69.8322 13.1951C69.0923 13.9205 67.9843 14.5684 66.7486 15.2899C65.546 15.9921 64.236 16.7575 63.2335 17.693C62.2187 18.6399 61.4622 19.8132 61.4622 21.3343H62.5872C62.5872 20.2344 63.1196 19.3379 64.001 18.5155C64.8947 17.6816 66.0885 16.9781 67.3159 16.2614C68.5102 15.564 69.7585 14.8428 70.6198 13.9985C71.5083 13.1274 72.0629 12.0443 71.6982 10.6714L70.611 10.9603ZM61.4622 21.3343C61.4622 24.1225 63.8226 25.9099 66.2898 26.2777C68.7902 26.6504 71.6398 25.6179 72.7588 22.5696L71.7027 22.1819C70.8083 24.6184 68.5548 25.4778 66.4556 25.1649C64.3232 24.8471 62.5872 23.3714 62.5872 21.3343H61.4622ZM71.6839 22.5077C71.9384 23.5618 72.3442 24.5226 73.0248 25.2236C73.7233 25.9429 74.6642 26.3402 75.8757 26.3402V25.2152C74.935 25.2152 74.2964 24.9182 73.8319 24.4399C73.3497 23.9432 73.0091 23.2031 72.7775 22.2437L71.6839 22.5077ZM75.8757 26.3402C77.0293 26.3402 77.8698 25.9633 78.4203 25.351C78.9582 24.7527 79.1603 23.9953 79.1804 23.33L78.0559 23.296C78.0414 23.7763 77.8963 24.2512 77.5837 24.5989C77.2837 24.9325 76.7704 25.2152 75.8757 25.2152V26.3402ZM78.6115 22.7505C77.9941 22.7579 77.5885 22.5956 77.2945 22.3325C76.9867 22.057 76.7407 21.6168 76.5561 20.9606C76.1804 19.6253 76.1265 17.6717 76.0562 15.174L74.9316 15.2057C75.0001 17.6374 75.0504 19.7627 75.4731 21.2653C75.6877 22.0281 76.0145 22.6966 76.5442 23.1707C77.0877 23.6572 77.7843 23.8855 78.6249 23.8755L78.6115 22.7505ZM76.0563 15.1819C76.0203 12.6256 75.3336 10.7105 73.9826 9.4424C72.6367 8.17917 70.7288 7.64978 68.4469 7.64978V8.77478C70.5737 8.77478 72.1545 9.26947 73.2127 10.2627C74.2656 11.251 74.898 12.8247 74.9314 15.1978L76.0563 15.1819ZM68.4469 7.64978C64.8458 7.64978 62.868 9.35538 62.3943 11.271C62.1633 12.205 62.3046 13.1685 62.7988 13.9128C63.3017 14.6703 64.1468 15.1622 65.2185 15.1622V14.0372C64.5197 14.0372 64.0283 13.7307 63.736 13.2905C63.4351 12.8373 63.3225 12.2039 63.4864 11.541C63.8024 10.2629 65.2093 8.77478 68.4469 8.77478V7.64978ZM66.0934 21.0219C66.0934 19.2391 67.2109 17.8031 68.5822 16.4748C68.9205 16.1471 69.2668 15.8327 69.6084 15.5237C69.9475 15.2172 70.2848 14.9135 70.5927 14.6173C71.1937 14.039 71.7572 13.4221 72.0234 12.7619L70.9801 12.3412C70.8123 12.7572 70.4125 13.2295 69.8127 13.8065C69.5201 14.088 69.1976 14.3785 68.8539 14.6893C68.5128 14.9978 68.1533 15.324 67.7995 15.6667C66.4024 17.02 64.9684 18.743 64.9684 21.0219H66.0934ZM70.9433 12.6189C71.1129 14.0265 71.1299 15.6645 71.1781 17.3453C71.2258 19.0037 71.3041 20.7006 71.6111 22.1455L72.7115 21.9116C72.4284 20.5794 72.3505 18.9784 72.3027 17.313C72.2555 15.6698 72.2378 13.9579 72.0602 12.4843L70.9433 12.6189ZM71.6277 21.8507C71.3866 22.574 70.8456 23.1154 70.2606 23.4834C69.9706 23.6659 69.6806 23.7985 69.4334 23.8843C69.175 23.9741 68.9996 24.0002 68.9329 24.0002V25.1252C69.1786 25.1252 69.4892 25.0559 69.8025 24.9471C70.127 24.8344 70.4944 24.6654 70.8597 24.4357C71.5851 23.9793 72.3459 23.2536 72.695 22.2064L71.6277 21.8507ZM68.9329 24.0002C67.159 24.0002 66.0934 22.554 66.0934 21.0219H64.9684C64.9684 23.0306 66.4022 25.1252 68.9329 25.1252V24.0002ZM79.1025 25.5L78.851 24.9969C78.6177 25.1136 78.4952 25.3753 78.5551 25.6292C78.615 25.8831 78.8417 26.0625 79.1025 26.0625V25.5ZM85.3511 25.5V26.0625C85.612 26.0625 85.8386 25.8831 85.8986 25.6292C85.9585 25.3753 85.836 25.1136 85.6027 24.9969L85.3511 25.5ZM84.0667 1.06114H84.6292C84.6292 0.853692 84.515 0.663082 84.3321 0.565197C84.1492 0.467312 83.9273 0.478041 83.7547 0.593115L84.0667 1.06114ZM78.8248 3.63V3.0675C78.5407 3.0675 78.3013 3.27931 78.2665 3.56127C78.2318 3.84322 78.4128 4.1068 78.6884 4.1757L78.8248 3.63ZM79.1025 26.0625H85.3511V24.9375H79.1025V26.0625ZM85.6027 24.9969C85.6896 25.0404 84.6292 24.4269 84.6292 21.9591H83.5042C83.5042 24.768 84.7349 25.8208 85.0996 26.0031L85.6027 24.9969ZM84.6292 21.9591V1.06114H83.5042V21.9591H84.6292ZM83.7547 0.593115C83.678 0.644222 83.6283 0.705995 83.624 0.711024C83.6072 0.73088 83.5922 0.750623 83.5819 0.764319C83.562 0.790998 83.5346 0.829191 83.5114 0.861245C83.46 0.932034 83.3913 1.02508 83.3013 1.13457C83.1212 1.3536 82.854 1.64041 82.4829 1.92558C81.7473 2.49084 80.5814 3.0675 78.8248 3.0675V4.1925C80.8521 4.1925 82.2551 3.51945 83.1684 2.81763C83.6217 2.46926 83.949 2.1182 84.1703 1.84906C84.281 1.71447 84.3647 1.60085 84.4221 1.52166C84.4533 1.47873 84.4694 1.4561 84.4825 1.43854C84.4888 1.43012 84.4878 1.43189 84.4824 1.43821C84.4796 1.44149 84.4716 1.45087 84.4596 1.46296C84.4507 1.4719 84.4222 1.50014 84.3787 1.52917L83.7547 0.593115ZM78.6884 4.1757C78.5426 4.13925 79.8592 4.58006 79.8592 7.17086H80.9842C80.9842 4.13793 79.3848 3.19017 78.9613 3.08429L78.6884 4.1757ZM79.8592 7.17086V21.9591H80.9842V7.17086H79.8592ZM79.8592 21.9591C79.8592 24.4156 78.7729 25.0359 78.851 24.9969L79.3541 26.0031C79.7099 25.8252 80.9842 24.7793 80.9842 21.9591H79.8592ZM86.2976 25.5L86.0461 24.9969C85.8127 25.1136 85.6902 25.3753 85.7502 25.6292C85.8101 25.8831 86.0367 26.0625 86.2976 26.0625V25.5ZM92.5115 25.5V26.0625C92.7723 26.0625 92.999 25.8831 93.0589 25.6292C93.1189 25.3753 92.9964 25.1136 92.763 24.9969L92.5115 25.5ZM91.227 8.10814H91.7895C91.7895 7.88948 91.6628 7.69064 91.4646 7.59828C91.2664 7.50592 91.0327 7.53679 90.8652 7.67743L91.227 8.10814ZM85.9852 9.98271V9.42021C85.696 9.42021 85.4539 9.6395 85.4254 9.92729C85.3969 10.2151 85.5913 10.4776 85.8749 10.5343L85.9852 9.98271ZM86.6448 5.19214L87.1371 4.92007C87.1339 4.91423 87.1305 4.90845 87.1271 4.90274L86.6448 5.19214ZM90.0468 6.33771L90.3225 6.828L90.3274 6.82519L90.0468 6.33771ZM90.7758 2.79685L90.2865 3.07456L90.2923 3.08433L90.7758 2.79685ZM87.3738 1.686L87.6482 2.17703C87.6539 2.1738 87.6596 2.17047 87.6653 2.16705L87.3738 1.686ZM86.2976 26.0625H92.5115V24.9375H86.2976V26.0625ZM92.763 24.9969C92.85 25.0404 91.7895 24.4269 91.7895 21.9591H90.6645C90.6645 24.768 91.8952 25.8208 92.2599 26.0031L92.763 24.9969ZM91.7895 21.9591V8.10814H90.6645V21.9591H91.7895ZM90.8652 7.67743C90.4866 7.99549 89.7687 8.43644 88.8768 8.79737C87.9876 9.15718 86.9676 9.42021 85.9852 9.42021V10.5452C87.1551 10.5452 88.3221 10.2355 89.2988 9.84023C90.2727 9.44613 91.0996 8.94979 91.5888 8.53885L90.8652 7.67743ZM85.8749 10.5343C86.0645 10.5722 86.3264 10.6916 86.5575 11.0896C86.801 11.509 87.0195 12.257 87.0195 13.5583H88.1445C88.1445 12.1519 87.9118 11.1815 87.5304 10.5247C87.1367 9.84659 86.6002 9.53207 86.0955 9.43114L85.8749 10.5343ZM87.0195 13.5583V21.9591H88.1445V13.5583H87.0195ZM87.0195 21.9591C87.0195 24.4269 85.9591 25.0404 86.0461 24.9969L86.5492 26.0031C86.9139 25.8208 88.1445 24.768 88.1445 21.9591H87.0195ZM86.1524 5.46421C87.0145 7.02406 88.9081 7.62362 90.3225 6.82797L89.771 5.84745C88.9638 6.30152 87.7331 5.99851 87.1371 4.92007L86.1524 5.46421ZM90.3274 6.82519C91.7896 5.98334 92.1556 4.01694 91.2592 2.50938L90.2923 3.08433C90.9233 4.14563 90.5951 5.37294 89.7661 5.85024L90.3274 6.82519ZM91.265 2.5192C90.415 1.02161 88.5566 0.311404 87.0822 1.20495L87.6653 2.16705C88.4821 1.67202 89.6785 2.00324 90.2866 3.07451L91.265 2.5192ZM87.0994 1.19497C85.5811 2.04339 85.3083 4.05809 86.1624 5.48154L87.1271 4.90274C86.5232 3.89619 86.8058 2.64775 87.6482 2.17703L87.0994 1.19497ZM102.233 8.35114L102.728 8.61937C102.822 8.44507 102.818 8.23386 102.717 8.06346C102.615 7.89305 102.432 7.78864 102.233 7.78864V8.35114ZM92.9299 25.5L92.4355 25.2318C92.341 25.4061 92.3452 25.6173 92.4466 25.7877C92.548 25.9581 92.7317 26.0625 92.9299 26.0625V25.5ZM106.33 25.5V26.0625C106.623 26.0625 106.868 25.8363 106.89 25.5434L106.33 25.5ZM106.816 19.2167L107.376 19.2601C107.4 18.9568 107.178 18.6898 106.876 18.6574C106.573 18.625 106.3 18.839 106.258 19.1404L106.816 19.2167ZM97.3039 25.3264L96.8095 25.0582C96.715 25.2325 96.7192 25.4437 96.8206 25.6141C96.922 25.7845 97.1057 25.8889 97.3039 25.8889V25.3264ZM106.607 8.17757L107.102 8.4458C107.196 8.2715 107.192 8.06029 107.091 7.88988C106.989 7.71948 106.806 7.61507 106.607 7.61507V8.17757ZM94.3532 8.17757V7.61507C94.0702 7.61507 93.8312 7.82539 93.7953 8.10615L94.3532 8.17757ZM93.7978 12.5169L93.2399 12.4454C93.207 12.7021 93.3535 12.9481 93.5949 13.0415C93.8363 13.1348 94.1102 13.0514 94.2586 12.8394L93.7978 12.5169ZM94.0408 12.1697L94.5016 12.4923C94.5101 12.4802 94.5181 12.4678 94.5255 12.4551L94.0408 12.1697ZM101.739 8.08291L92.4355 25.2318L93.4244 25.7682L102.728 8.61937L101.739 8.08291ZM92.9299 26.0625H106.33V24.9375H92.9299V26.0625ZM106.89 25.5434L107.376 19.2601L106.255 19.1733L105.769 25.4566L106.89 25.5434ZM106.258 19.1404C105.955 21.356 103.661 24.7639 97.3039 24.7639V25.8889C104.139 25.8889 106.982 22.1457 107.373 19.2931L106.258 19.1404ZM97.7984 25.5947L107.102 8.4458L106.113 7.90934L96.8095 25.0582L97.7984 25.5947ZM106.607 7.61507H94.3532V8.74007H106.607V7.61507ZM93.7953 8.10615L93.2399 12.4454L94.3558 12.5883L94.9112 8.24899L93.7953 8.10615ZM94.2586 12.8394L94.5016 12.4923L93.58 11.8471L93.337 12.1943L94.2586 12.8394ZM94.5255 12.4551C95.5628 10.6934 96.6814 9.83599 97.8985 9.39659C99.15 8.94478 100.554 8.91364 102.233 8.91364V7.78864C100.581 7.78864 98.9814 7.80957 97.5165 8.33844C96.0172 8.87972 94.7058 9.93158 93.5561 11.8843L94.5255 12.4551ZM121.535 21.9244L122.07 22.0974C122.154 21.8369 122.039 21.5537 121.797 21.4264C121.554 21.2992 121.256 21.3648 121.089 21.5819L121.535 21.9244ZM111.121 16.8909V16.3284C110.938 16.3284 110.766 16.4175 110.661 16.5674C110.555 16.7173 110.529 16.909 110.592 17.0814L111.121 16.8909ZM121.118 16.8909V17.4534C121.412 17.4534 121.656 17.2278 121.679 16.9354L121.118 16.8909ZM111.711 9.14957L112.01 9.6257C112.015 9.62306 112.019 9.62036 112.023 9.6176L111.711 9.14957ZM110.947 16.5437L110.412 16.7171C110.495 16.9738 110.749 17.1352 111.017 17.1019L110.947 16.5437ZM111.78 9.28843L111.468 8.82039L111.465 8.82284L111.78 9.28843ZM119.591 15.4676L119.661 16.0258C119.838 16.0037 119.994 15.8989 120.081 15.7433C120.169 15.5877 120.177 15.3998 120.104 15.2369L119.591 15.4676ZM115.946 26.4096C118.931 26.4096 121.266 24.5875 122.07 22.0974L121 21.7515C120.346 23.7742 118.446 25.2846 115.946 25.2846V26.4096ZM121.089 21.5819C120.427 22.4438 119.652 22.8544 118.844 22.952C118.022 23.0514 117.107 22.8322 116.182 22.325C114.322 21.3063 112.547 19.1933 111.65 16.7003L110.592 17.0814C111.569 19.7956 113.508 22.1433 115.641 23.3116C116.711 23.8979 117.862 24.2038 118.979 24.0689C120.111 23.9321 121.15 23.3491 121.981 22.267L121.089 21.5819ZM111.121 17.4534H121.118V16.3284H111.121V17.4534ZM121.679 16.9354C121.859 14.6753 121.523 12.3287 120.551 10.5231C119.564 8.69231 117.908 7.40679 115.529 7.40679V8.53179C117.421 8.53179 118.732 9.52005 119.56 11.0566C120.401 12.6182 120.726 14.7324 120.558 16.8464L121.679 16.9354ZM115.529 7.40679C113.641 7.40679 112.074 8.23149 111.399 8.68154L112.023 9.6176C112.598 9.2345 113.947 8.53179 115.529 8.53179V7.40679ZM111.411 8.67344C109.087 10.1356 107.295 13.1322 107.295 16.6826H108.42C108.42 13.4983 110.03 10.8712 112.01 9.6257L111.411 8.67344ZM107.295 16.6826C107.295 21.9948 111.129 26.4096 115.946 26.4096V25.2846C111.876 25.2846 108.42 21.5069 108.42 16.6826H107.295ZM111.482 16.3704C111.095 15.1733 110.81 13.7766 110.858 12.5345C110.907 11.2861 111.284 10.3045 112.096 9.75401L111.465 8.82284C110.229 9.66089 109.79 11.0746 109.734 12.4905C109.679 13.9128 110.001 15.4494 110.412 16.7171L111.482 16.3704ZM112.092 9.75646C112.684 9.3619 113.265 9.29289 113.849 9.44588C114.458 9.60513 115.102 10.0149 115.753 10.6367C117.054 11.8809 118.242 13.8385 119.078 15.6982L120.104 15.2369C119.239 13.3128 117.979 11.2089 116.53 9.82343C115.805 9.1304 114.997 8.58336 114.134 8.3575C113.247 8.12538 112.334 8.24296 111.468 8.8204L112.092 9.75646ZM119.522 14.9094L110.878 15.9855L111.017 17.1019L119.661 16.0258L119.522 14.9094Z" fill="#578067"/>
</svg>
