<svg width="46" height="62" viewBox="0 0 46 62" fill="none" xmlns="http://www.w3.org/2000/svg">
<path fill-rule="evenodd" clip-rule="evenodd" d="M28.8133 14.6099C28.3165 15.4192 27.8643 16.2558 27.4215 17.0975C27.387 17.014 27.3517 16.9341 27.3171 16.8592C27.2703 16.7584 27.1983 16.5971 27.1105 16.4438C27.1098 16.4056 27.1062 16.3667 27.099 16.3278C26.5741 13.4428 25.1722 11.2007 23.108 9.13648C22.4146 8.44384 21.6061 7.61872 20.701 7.20544C19.3122 6.5704 17.5417 6.3076 16.0182 6.3076C15.6358 6.3076 15.3226 6.6064 15.2996 6.98296C15.003 7.5568 14.8762 8.24224 14.7762 8.85856C14.0979 13.0389 18.014 16.6994 21.8854 17.4734C23.2635 17.7491 24.5682 17.3466 25.9218 17.2847C25.957 17.3546 25.9938 17.4294 26.011 17.4654C26.1284 17.7196 26.2659 18.0472 26.3444 18.382C26.4013 18.6218 26.4423 18.8658 26.3667 19.0674C26.3574 19.0926 26.3494 19.1186 26.343 19.1445C26.1226 19.5513 25.8973 19.9559 25.6633 20.3548C25.6287 20.4066 25.5985 20.4578 25.5726 20.5089C25.3954 20.8077 25.2126 21.1029 25.0225 21.3938C23.0353 24.4386 21.0927 27.4497 19.2538 30.4967C19.0328 30.2498 18.806 29.9668 18.6296 29.6759C18.4856 29.4383 18.3646 29.2022 18.3646 28.9775C18.3646 28.8998 18.3524 28.8249 18.3294 28.755C18.3236 28.7255 18.3164 28.6974 18.307 28.6694C18.3308 28.5988 18.343 28.5225 18.343 28.444C18.343 26.7966 18.3164 24.9779 17.8966 23.3291C17.4459 21.5565 16.5517 19.9775 14.8359 18.94C13.7689 18.2949 12.3879 17.8074 11.143 17.6865C11.0358 17.6757 10.1055 17.7016 9.89744 17.7081C9.70592 17.621 9.47912 17.6174 9.2768 17.7189C9.04568 17.8341 8.90384 18.0573 8.88152 18.297C8.84624 18.4094 8.8376 18.531 8.86208 18.6542C9.62888 22.4874 11.2489 24.9628 14.2383 27.4986C14.6883 27.8795 15.5444 28.719 16.3407 29.1921C16.5625 29.3238 16.7835 29.4282 16.9952 29.4995C17.0737 29.8041 17.2134 30.118 17.3984 30.4218C17.7044 30.9273 18.1299 31.4147 18.4856 31.7841C16.9563 34.371 15.507 36.9926 14.1742 39.6904C14.0288 39.334 13.887 38.9747 13.7516 38.614C13.7149 38.5161 13.6616 38.2763 13.5903 38.0646C15.4026 35.8838 15.35 33.335 14.2909 31.0252C13.244 28.7399 11.1826 26.7009 9.0608 25.5683C8.95352 25.4387 8.8016 25.3458 8.62376 25.3163C8.23136 25.2508 7.86056 25.5158 7.79504 25.9082L7.78712 25.9535C7.78568 25.9636 7.78352 25.9737 7.78208 25.9838C7.17152 29.6658 6.76328 33.4754 9.27464 36.6448C9.65552 37.1258 10.3143 37.7968 11.0264 38.2583C11.4469 38.5305 11.889 38.727 12.3116 38.8055C12.3469 38.9344 12.385 39.0712 12.4038 39.1194C12.6946 39.8963 13.015 40.6653 13.3398 41.4249C12.2454 43.7598 11.2417 46.156 10.3518 48.6422C10.1458 49.2189 9.9392 49.7877 9.73688 50.3514C9.53312 49.8309 9.30488 49.3168 9.11624 48.8207C9.2336 47.7357 9.42656 46.7709 9.51728 45.8421C9.67352 44.2329 9.5432 42.723 8.37392 40.9475C7.988 40.3607 7.4624 39.8445 6.96776 39.3498C6.36512 38.7472 5.70992 38.1834 4.98848 37.7262C4.52264 37.431 3.69464 36.742 2.95592 36.3532C2.5268 36.1271 2.11208 35.9997 1.7744 35.9997C1.48928 35.9997 1.24232 36.166 1.12568 36.4065C0.959361 36.5382 0.852802 36.742 0.852802 36.971C0.852802 37.7385 0.655521 38.5089 0.693681 39.3023C0.849921 42.5812 2.03504 45.5778 4.60688 47.6889C5.14832 48.1324 5.7956 48.4146 6.44432 48.6868C6.91592 48.8841 7.38968 49.0727 7.78856 49.3701C7.97864 49.8518 8.20544 50.3493 8.40344 50.8518C8.63168 51.4307 8.8268 52.0161 8.8268 52.5935C8.8268 52.6792 8.8412 52.7606 8.86856 52.8369C7.99304 55.4591 7.29896 58.0677 7.1168 60.9851C7.0916 61.3811 7.39328 61.7238 7.79 61.7483C8.18672 61.7735 8.52872 61.4711 8.55392 61.0751C8.7692 57.6306 9.734 54.634 10.8486 51.5121C11.4541 50.7604 12.1021 50.0915 12.9142 49.5933C13.0165 49.6797 13.1439 49.7373 13.2858 49.7553C18.5086 50.4134 23.9814 48.3837 26.9182 43.8729C27.135 43.5395 27.0406 43.0931 26.7073 42.8764C26.6216 42.821 26.5287 42.7857 26.4337 42.7698C26.3876 42.749 26.3386 42.7324 26.2875 42.7209C21.3246 41.6416 15.494 43.366 12.9416 47.9531C12.9214 47.9603 12.902 47.969 12.8826 47.9776C12.5442 48.136 12.2281 48.3153 11.93 48.514C12.8466 46.0228 13.8776 43.6209 15.0015 41.2794C15.0397 41.255 15.0764 41.2262 15.111 41.193C16.0275 40.3146 17.191 39.7653 18.3279 39.2116C18.3841 39.2865 18.4554 39.352 18.541 39.4017C22.2721 41.5962 27.1098 39.6407 29.858 36.7751C30.835 35.757 31.5327 34.3631 32.4075 33.245C32.4464 33.1953 32.4774 33.1427 32.5011 33.0873C32.5695 33.0225 32.6257 32.9426 32.6653 32.8511C32.8215 32.4854 32.6523 32.062 32.2873 31.9058C28.3698 30.2267 22.7466 31.4262 19.963 34.6274C19.5217 35.135 18.8312 35.8874 18.4129 36.6765C18.225 37.0307 18.0918 37.3936 18.0334 37.7522C17.4682 38.0322 16.893 38.3073 16.3342 38.609C17.5467 36.2668 18.8456 33.9765 20.2042 31.7092C21.3958 30.437 22.735 29.1172 24.2571 28.2503C24.4645 28.3677 24.7273 28.457 24.8605 28.5239C25.9988 29.0934 26.9636 29.2108 28.2272 29.3066C30.9992 29.5154 33.8504 29.429 36.4453 28.3403C37.3107 27.9774 38.5722 27.4475 39.313 26.7354C39.4189 26.6872 39.5146 26.613 39.5888 26.513C39.8278 26.1954 39.763 25.7433 39.4448 25.505C35.9845 22.9094 31.3491 22.9799 27.4057 24.5891C26.4142 24.993 25.4286 25.469 24.5804 26.1285C24.4191 26.2538 24.1498 26.4345 23.9655 26.6325C23.895 26.7081 23.8345 26.7866 23.7841 26.8665C23.4622 27.04 23.1469 27.2322 22.8394 27.4389C23.9461 25.6886 25.0801 23.9404 26.2285 22.1807C26.4121 21.8992 26.5892 21.6141 26.7606 21.3261C26.8002 21.2764 26.8326 21.2217 26.8585 21.1612L26.8628 21.154C26.8938 21.1252 27.0111 21.0172 27.0889 20.9618C27.3142 20.7998 27.5598 20.6543 27.7023 20.5434C28.5231 19.9098 29.2186 19.3994 30.2281 19.0998C30.3519 19.0631 30.547 19.0199 30.7414 19.0012C30.7659 18.9983 30.7947 18.9976 30.825 18.9969C30.8977 19.0358 30.9769 19.0624 31.059 19.0746C31.149 19.1495 31.2598 19.2165 31.3909 19.2676C31.6378 19.3634 32.0058 19.4116 32.1476 19.4397C33.0872 19.6276 34.0549 19.5844 35.0074 19.5844C37.5908 19.5844 39.7126 19.025 42.0958 18.112C43.3537 17.6303 44.6662 17.1702 45.6872 16.2623C45.9838 15.9988 46.0105 15.543 45.747 15.2464C45.6793 15.1701 45.5986 15.1118 45.5115 15.0714C41.3715 12.7127 37.0306 13.599 33.0339 15.8922C32.5796 16.1529 32.1627 16.5568 31.7581 16.9571C31.5378 17.1753 31.3239 17.3949 31.0986 17.5598C31.0604 17.5569 31.0215 17.5547 30.9812 17.5533C30.5802 17.541 30.0898 17.639 29.8191 17.7196C29.2899 17.8758 28.8313 18.0782 28.4007 18.3194C28.9206 17.3258 29.4433 16.3343 30.0294 15.3803C35.528 14.4738 40.015 11.6946 41.6646 5.97928C42.121 4.39672 41.9346 3.01504 41.9914 1.43392C41.9958 1.31656 41.9713 1.20496 41.9252 1.1056C41.9324 1.06384 41.9367 1.02136 41.936 0.97744C41.9346 0.58072 41.6106 0.25888 41.2131 0.26032C39.3303 0.26824 37.1516 0.35608 35.1327 0.85C33.0058 1.36984 31.059 2.34112 29.7478 4.07704C28.8536 5.26072 28.413 6.72952 28.2668 8.28544C28.0652 10.426 28.4223 12.735 28.8133 14.6099ZM25.075 43.9665C22.7559 46.8623 19.153 48.3693 15.476 48.4348C17.3372 47.8552 19.112 47.0718 20.8587 46.1387C21.0337 46.0444 21.0999 45.8262 21.0063 45.6513C20.9127 45.4756 20.6938 45.4101 20.5189 45.5037C18.6238 46.5167 16.6942 47.3498 14.6523 47.9286C16.9059 44.6994 21.1964 43.4258 25.075 43.9665ZM2.25536 37.6046C2.19992 38.141 2.1056 38.681 2.13152 39.2332C2.26832 42.0988 3.27272 44.7311 5.52056 46.5758C5.954 46.9307 6.48104 47.141 7.00088 47.3584C7.09592 47.398 7.19024 47.4376 7.28384 47.4786C6.20024 45.2848 4.77536 43.2119 3.4196 41.1959C3.30872 41.031 3.35264 40.8071 3.51752 40.6962C3.6824 40.5854 3.90632 40.6293 4.0172 40.7942C5.378 42.8174 6.80504 44.8989 7.89872 47.0978C7.97144 46.6175 8.03984 46.156 8.08376 45.7024C8.21048 44.4006 8.1176 43.1759 7.17152 41.7395C6.83816 41.2334 6.37664 40.7956 5.94968 40.3679C5.4212 39.8394 4.84952 39.3434 4.21736 38.9423C3.83 38.6968 3.1856 38.1669 2.55776 37.7831C2.45408 37.7198 2.35256 37.6578 2.25536 37.6046ZM30.861 32.9217C27.5497 31.9547 23.2621 33.0275 21.0502 35.572C20.7241 35.9471 20.2338 36.4677 19.8694 37.0365C21.5946 36.261 23.4874 35.8478 25.317 35.3978C25.5099 35.3502 25.705 35.4683 25.7526 35.6613C25.8001 35.8542 25.682 36.0494 25.489 36.0969C23.4414 36.6009 21.3066 37.0458 19.4389 38.0488C19.4331 38.1201 19.4353 38.1906 19.4468 38.2598C22.581 39.9518 26.5338 38.1611 28.8183 35.7786C29.6046 34.9593 30.1971 33.8829 30.861 32.9217ZM9.04064 27.2236C8.58416 30.1936 8.38976 33.209 10.4036 35.7506C10.7096 36.1365 11.2366 36.6786 11.809 37.0494C11.9329 37.1301 12.0582 37.2042 12.182 37.2633C11.8803 36.0983 11.8054 34.8786 11.4771 33.718C11.197 32.7287 10.5886 31.8705 10.1156 30.969C10.0234 30.7934 10.0911 30.5752 10.2675 30.483C10.4432 30.3909 10.6614 30.4586 10.7535 30.635C11.2489 31.5796 11.8767 32.4846 12.1698 33.5222C12.4664 34.569 12.555 35.6656 12.7918 36.7254C13.8704 35.1134 13.7444 33.2882 12.9819 31.625C12.1712 29.8559 10.6635 28.2575 9.04064 27.2236ZM37.7802 26.1249C34.8346 24.399 31.1346 24.623 27.9493 25.9218C27.4748 26.1155 27.001 26.325 26.5467 26.5698C28.6686 26.0961 30.9466 25.8894 33.0483 25.9715C33.247 25.9787 33.4018 26.1465 33.3939 26.3452C33.386 26.5432 33.219 26.6987 33.0202 26.6908C30.7371 26.6015 28.2394 26.8636 25.9794 27.4461C26.7426 27.7398 27.4546 27.8039 28.3352 27.8702C30.8818 28.0624 33.5048 28.0127 35.8887 27.0126C36.4323 26.7844 37.1869 26.5043 37.7802 26.1249ZM16.8793 26.6735C16.8411 25.667 16.7454 24.6446 16.5013 23.6841C16.142 22.2729 15.4566 20.9985 14.0907 20.1726C13.2044 19.6362 12.061 19.2266 11.025 19.1214C10.9976 19.1236 10.7398 19.1387 10.4475 19.1474C11.2042 22.1966 12.6608 24.2723 15.17 26.3999C15.463 26.6483 15.9382 27.1106 16.4516 27.5152C15.7086 25.5575 14.2729 23.867 12.997 22.2549C12.8732 22.0986 12.8998 21.8726 13.0561 21.7487C13.2116 21.6256 13.4384 21.6522 13.5615 21.8078C14.7524 23.3133 16.0671 24.8922 16.8793 26.6735ZM43.8066 15.8303C40.4434 14.3997 36.973 15.2925 33.7503 17.1414C33.6078 17.2235 33.4717 17.3258 33.3392 17.4388C35.2825 17.1047 37.2186 16.4834 39.0639 15.8886C39.2533 15.8282 39.4563 15.9318 39.5175 16.1212C39.578 16.3106 39.4743 16.5136 39.285 16.5741C37.4166 17.1767 35.456 17.801 33.4875 18.143C33.9937 18.1624 34.5027 18.1444 35.0074 18.1444C37.4043 18.1444 39.3699 17.6138 41.581 16.767C42.3284 16.4812 43.106 16.2184 43.8066 15.8303ZM10.2258 18.0098L10.2423 18.0407C10.2373 18.0299 10.2315 18.0198 10.2258 18.0098ZM16.5178 7.75768C16.3263 8.16736 16.2673 8.65696 16.1974 9.08896C15.9253 10.7687 16.6114 12.3254 17.7332 13.5472C18.9018 14.8202 20.547 15.7374 22.1684 16.0614C22.8099 16.1896 23.4327 16.1349 24.0534 16.0564C24.3003 16.0247 24.5466 15.9894 24.7935 15.9563C22.2865 14.8842 20.3972 12.9798 18.6152 10.8861C18.4863 10.7349 18.5043 10.5074 18.6562 10.3785C18.8074 10.2503 19.035 10.2683 19.1631 10.4195C20.9502 12.5183 22.8358 14.435 25.4077 15.43C24.8058 13.3888 23.653 11.7184 22.0899 10.1546C21.511 9.5764 20.858 8.86 20.1027 8.51512C19.0407 8.02984 17.7217 7.8052 16.5178 7.75768ZM40.5442 1.7068C38.9314 1.732 37.1451 1.84 35.4747 2.24824C33.6747 2.68888 32.0065 3.47512 30.897 4.94464C30.1604 5.92024 29.8206 7.13776 29.7003 8.42008C29.5664 9.8464 29.7039 11.3519 29.9271 12.7336C30.4844 11.0222 31.6573 9.5764 33.0282 8.2444C34.7713 6.55024 36.8334 5.0404 38.2402 3.352C38.3677 3.19936 38.5945 3.1792 38.7471 3.30592C38.8998 3.43336 38.9206 3.66088 38.7932 3.81352C37.3719 5.51848 35.2918 7.04848 33.53 8.76064C32.0137 10.2345 30.7306 11.843 30.3894 13.8525C35.0535 12.9446 38.8609 10.5016 40.2807 5.5804C40.671 4.22824 40.5262 3.03376 40.5442 1.7068Z" fill="#DDE6E1"/>
</svg>
